<svg viewBox="0 0 194 22"><path d="M18.4 12c-.7 2-3 3.5-6.9 3.5H8.4V5.3L.4 0v21h12.5c5.8 0 9.7-1.8 11.9-4.7L18.4 12z" class="logo-white"></path><path fill-rule="evenodd" fill="#FFE700" d="M24.8 16.3c1.2-1.7 1.8-3.6 1.8-5.8C26.6 5 22.5 0 14 0H.4l8.1 5.4h3.1c5.5 0 7 2.3 7 5.2 0 .5-.1 1-.3 1.5l6.5 4.2z" class="logo-yellow"></path><path d="M29.9 21V0h22.4v5.2H38V8h12.2v5.1H38v2.6h14.7V21H29.9zM74.5 21.1h-6.1L56.1.7l.3-.7h8.1l7.2 12.3L78.5 0h7.6l.3.7-11.9 20.4zM88.3 21V0h22.4v5.2H96.4V8h12.2v5.1H96.4v2.6h14.7V21H88.3zM115.3 21V0h8.1v15h15v6h-23.1zM167.7 10.3c0 6.9-4.5 11.2-13.2 11.2-8.9 0-13.5-4.2-13.5-10.9V0h8v9.8c0 4.1 2.2 5.5 5.4 5.5 2.9 0 5.2-1.8 5 .2-5.6V0h8v10.3zM183.8 15.5h-5.2V21h-8.1V0h13.4C190 0 194 2.8 194 7.7s-4.6 7.8-10.2 7.8zm-.3-9.8h-4.9V10h4.5c2.1 0 3.2-1 3.2-2.3 0-1.3-.9-2-2.8-2z" class="logo-white"></path></svg>